# xmcd CD database file
#
# Track frame offsets:
#	150
#	19750
#	37722
#	49147
#	68180
#	77002
#	93642
#	111152
#	130025
#	146672
#	160470
#	176527
#	190640
#	204377
#	223430
#	237682
#	256750
#	271317
#	284527
#	301765
#	319297
#
# Disc length: 4492 seconds
#
# Revision: 2
# Processed by: cddbd v1.5.1PL0 Copyright (c) Steve Scherf et al.
# Submitted via: CDex 1.51
#
DISCID=34118a15
DTITLE=Various Artist - The Best Country Ballads In The World... Ever! [Disk 1 of 2]
DYEAR=1998
DGENRE=Country
TTITLE0=The Mavericks - Dance The Night Away
TTITLE1=Billy Swan - I Can Help
TTITLE2=Roy Orbison - Dream Baby (How Long Must I Dream)
TTITLE3=Jimmy Nail - Crocodile Shoes
TTITLE4=The Everly Brothers - Crying In The Rain
TTITLE5=Emmylou Harris - Here, There and Everywhere
TTITLE6=Linda Ronstadt - Blue Bayou
TTITLE7=Nanci Griffith - From A Distance
TTITLE8=Don Mclean - Crying
TTITLE9=Glen Campbell - Wichita Lineman
TTITLE10=Joe South - Games People Play
TTITLE11=Elvis Costello and The Attractions - A Good Year For The Roses
TTITLE12=Willie Nelson - Funny How Time Slips Away
TTITLE13=Bobbie Gentry - Ode To Billy Joe
TTITLE14=The Bellamy Brothers - If I Said You Had A Beautiful Body
TTITLE15=Mindy McCready - Oh Romeo
TTITLE16=Jo Dee Messina - I'm Alright
TTITLE17=Dr Hook - When You're In Love With A Beautiful Woman
TTITLE18=Trisha Yearwood - There Goes My Baby
TTITLE19=Allison Moorer - A Soft Place To Fall
TTITLE20=Lee Greenwood - The Wind Beneath My Wings
EXTD=CDDBSort:various,best_country_ballads_in_world_ever_disk_1_of_2 - YEAR: 1998
EXTT0=
EXTT1=
EXTT2=
EXTT3=
EXTT4=
EXTT5=
EXTT6=
EXTT7=
EXTT8=
EXTT9=
EXTT10=
EXTT11=
EXTT12=
EXTT13=
EXTT14=
EXTT15=
EXTT16=
EXTT17=
EXTT18=
EXTT19=
EXTT20=
PLAYORDER=
